<svg xmlns="http://www.w3.org/2000/svg" width="31.728" height="24.759" viewBox="0 0 31.728 24.759">
  <path id="mail" d="M17.76,2.452a2.488,2.488,0,0,0,1.767-.905l12.5-12.372a4.269,4.269,0,0,0-2.946-.762H5.949a3.549,3.549,0,0,0-2.529.7L15.993,1.547A2.493,2.493,0,0,0,17.76,2.452ZM2.227,10.858,12.386.814,2.2-9.23a4.738,4.738,0,0,0-.331,2.084V8.717A4.471,4.471,0,0,0,2.227,10.858Zm31.024-.014A4.708,4.708,0,0,0,33.6,8.717V-7.147a4.824,4.824,0,0,0-.316-2.04L23.12.814ZM6.38,13.172H29.515a3.582,3.582,0,0,0,2.515-.69L21.669,2.222l-.948.963a4.189,4.189,0,0,1-2.96,1.379A4.14,4.14,0,0,1,14.8,3.185l-.963-.963L3.506,12.468A4.422,4.422,0,0,0,6.38,13.172Z" transform="translate(-1.868 11.587)" fill="rgba(12,11,11,0.5)"/>
</svg>
