<svg xmlns="http://www.w3.org/2000/svg" width="27.225" height="17.072" viewBox="0 0 27.225 17.072">
  <path id="show" d="M15.192,5.566C23.236,5.566,28.8-.942,28.8-2.97s-5.574-8.536-13.608-8.536c-7.944,0-13.618,6.5-13.618,8.536S7.249,5.566,15.192,5.566Zm0-2.942A5.621,5.621,0,0,1,9.569-2.97a5.558,5.558,0,0,1,5.624-5.594A5.574,5.574,0,0,1,20.806-2.97,5.625,5.625,0,0,1,15.192,2.624Zm0-3.575A2.042,2.042,0,0,0,17.231-2.97,2.044,2.044,0,0,0,15.192-5,2.047,2.047,0,0,0,13.144-2.97,2.045,2.045,0,0,0,15.192-.952Z" transform="translate(-1.575 11.506)" fill="rgba(11,33,59,0.5)"/>
</svg>
