<svg xmlns="http://www.w3.org/2000/svg" width="109.25" height="106.792" viewBox="0 0 109.25 106.792">
  <path id="Title1" d="M62.073,15.623c12,0,21.59-10.409,21.59-23.421,0-12.626-9.686-22.891-21.59-22.891S40.387-20.328,40.436-7.75C40.484,5.213,50.074,15.623,62.073,15.623Zm0-10.458c-5.928,0-10.939-5.59-10.939-12.915-.048-6.988,5.012-12.482,10.939-12.482S72.965-14.786,72.965-7.8C72.965-.473,68.049,5.165,62.073,5.165Zm-.048,15.373a50.691,50.691,0,0,0-20.867,4.289,30.617,30.617,0,0,1,7.373,8.53A37.278,37.278,0,0,1,62.025,31c19.614,0,30.987,11.951,30.987,18.313,0,.675-.337,1.06-1.253,1.06H53.833a27.807,27.807,0,0,1-1.639,10.458H91.663c8.867,0,13.3-3.036,13.3-9.4C104.964,37.068,87.326,20.538,62.025,20.538ZM21.159,76.1a25.469,25.469,0,1,0,0-50.938,25.469,25.469,0,0,0,0,50.938ZM4.677,50.658a3.718,3.718,0,0,1,3.952-3.952h8.578V38.128a3.8,3.8,0,0,1,3.952-3.952,3.718,3.718,0,0,1,3.952,3.952v8.578h8.626a3.952,3.952,0,0,1,0,7.9H25.111v8.626a3.718,3.718,0,0,1-3.952,3.952,3.744,3.744,0,0,1-3.952-3.952V54.609H8.629A3.8,3.8,0,0,1,4.677,50.658Z" transform="translate(4.286 30.689)" fill="#0c0b0b"/>
</svg>
